#N canvas 0 25 450 300 12;
#X obj 189 415 s d2 @hv_param;
#X obj 189 180 loadbang;
#X obj 189 238 tgl 25 0 empty empty empty 17 7 0 10 #e4e4e4 #4d4d4d #373737 0 1;
#X obj 189 272 sel 1, f 10;
#X obj 189 355 line 0 5;
#X text 180 129 3 - Flash;
#X msg 189 301 1 2000;
#X msg 249 301 0 2000;
#X obj 189 209 metro 2000;
#X text 180 67 1 - Compile -> Electrosmith Daisy -> Target board -> "Custom JSON", f 73;
#X text 180 98 2 - Select the file "seed_d2.json";
#X text 180 35 0 - Connect an Led between pin "DGND" and pin d2, f 73;
#X connect 1 0 8 0;
#X connect 2 0 3 0;
#X connect 3 0 6 0;
#X connect 3 1 7 0;
#X connect 4 0 0 0;
#X connect 6 0 4 0;
#X connect 7 0 4 0;
#X connect 8 0 2 0;
