#N canvas 827 239 527 327 12;
#X obj 53 88 loadbang;
#X obj 53 117 metro 1000;
#X msg 418 128 devices;
#X obj 418 163 comport;
#X text 53 241 bug?;
#X obj 441 239 fudiparse;
#X obj 418 199 sel 10;
#X text 418 101 Menu -> "finds externals" -> search and install "comport";
#X obj 53 175 print;
#X msg 53 146 hello world;
#X obj 441 293 print fromDaisySeed;
#X text 418 61 Receive from Daisy board;
#X text 494 162 Serial object;
#X text 44 54 Start sending from Daisy board;
#X text 53 281 https://github.com/Wasted-Audio/hvcc/issues/112;
#X connect 0 0 1 0;
#X connect 1 0 9 0;
#X connect 2 0 3 0;
#X connect 3 0 6 0;
#X connect 5 0 10 0;
#X connect 6 1 5 0;
#X connect 9 0 8 0;
