#N canvas 827 239 527 327 12;
#X obj 186 330 snapshot~;
#X obj 267 279 bang~;
#X obj 186 444 dac~;
#X obj 186 183 osc~ 1;
#X obj 186 231 +~ 1;
#X obj 186 279 *~ 0.5;
#X text 180 129 3 - Flash;
#X text 180 67 1 - Compile -> Electrosmith Daisy -> Target board -> "Custom JSON", f 73;
#X text 245 443 -> signal objects only get evaluated if your patch has audio input or output;
#X text 325 278 -> output a bang after each DSP block;
#X text 336 373 -> "d2" set as gpio name for pin2 in the file seed.jso;
#X obj 186 374 send d0 @hv_param;
#X text 180 35 0 - Connect an Led between pin "DGND" and pin d0, f 73;
#X text 180 98 2 - Select the file "seed_d0.json";
#X connect 0 0 11 0;
#X connect 1 0 0 0;
#X connect 3 0 4 0;
#X connect 4 0 5 0;
#X connect 5 0 0 0;
